<?xml version="1.0" standalone="no"?>
<!DOCTYPE svg PUBLIC "-//W3C//DTD SVG 20010904//EN"
 "http://www.w3.org/TR/2001/REC-SVG-20010904/DTD/svg10.dtd">
<svg version="1.0" xmlns="http://www.w3.org/2000/svg"
 width="256.000000pt" height="256.000000pt" viewBox="0 0 256.000000 256.000000"
 preserveAspectRatio="xMidYMid meet">

<g transform="translate(0.000000,256.000000) scale(0.100000,-0.100000)"
fill="#000000" stroke="none">
<path d="M685 2275 c-23 -22 -25 -32 -25 -114 l0 -90 -311 -3 -311 -3 -20 -25
c-18 -22 -20 -34 -15 -101 15 -190 114 -375 261 -485 147 -111 259 -144 483
-144 l153 0 0 -34 c0 -90 -87 -338 -150 -426 -20 -29 -25 -30 -96 -30 -118 0
-114 9 -114 -275 l0 -236 25 -24 24 -25 691 0 691 0 24 25 25 24 0 236 c0 284
4 275 -114 275 -71 0 -76 1 -95 29 -65 91 -151 335 -151 427 0 34 1 34 45 34
67 0 189 27 275 61 325 130 552 440 577 791 6 83 5 87 -20 112 l-26 26 -901 0
-901 0 -24 -25z m1715 -156 c0 -49 -29 -148 -65 -224 -98 -205 -287 -359 -509
-415 -74 -19 -113 -20 -548 -20 l-468 0 0 345 0 345 795 0 795 0 0 -31z
m-1740 -429 l0 -230 -27 0 c-16 0 -52 7 -82 15 -147 39 -275 144 -341 279 -22
45 -43 100 -46 124 l-7 42 252 0 251 0 0 -230z m856 -465 c16 -113 39 -194 85
-299 21 -50 39 -94 39 -98 0 -5 -162 -8 -360 -8 -198 0 -360 3 -360 8 0 4 18
48 40 99 42 98 75 215 85 303 4 30 8 61 11 68 3 10 53 12 226 10 l222 -3 12
-80z m354 -685 l0 -130 -590 0 -590 0 0 130 0 130 590 0 590 0 0 -130z"/>
</g>
</svg>
