<svg version="1.1" id="Layer_1" xmlns="http://www.w3.org/2000/svg" xmlns:xlink="http://www.w3.org/1999/xlink" x="0px" y="0px"
	 width="100%" viewBox="0 0 512 512" enable-background="new 0 0 512 512" xml:space="preserve">
<path fill="#FFDE50" opacity="1.000000" stroke="none" 
	d="
M513.000000,225.000000 
	C513.000000,246.020889 513.000000,267.041779 512.662964,288.188538 
	C511.882874,289.148621 511.222015,289.935608 511.029572,290.824066 
	C508.019135,304.722229 505.613464,318.777985 501.969940,332.505890 
	C497.222198,350.394287 489.518524,367.139069 480.365723,383.264526 
	C471.424286,399.017639 461.378052,414.063141 448.978180,427.139465 
	C437.435913,439.311432 424.969513,450.776642 411.887695,461.279755 
	C391.713257,477.477417 369.036896,489.557312 344.538879,498.136658 
	C327.065308,504.256012 309.380615,509.357239 290.852539,511.073456 
	C290.181305,511.135620 289.615143,512.332153 289.000000,513.000000 
	C278.979095,513.000000 268.958221,513.000000 258.154114,512.748047 
	C253.601624,512.019043 249.838608,511.484314 246.062042,511.074432 
	C219.453812,508.186615 194.034622,501.076813 169.932495,489.370789 
	C172.064178,486.870453 174.023361,484.613678 176.110596,482.482269 
	C186.698257,471.670898 197.319138,460.892029 208.331024,450.082825 
	C222.856247,451.990479 236.978806,453.917023 251.558624,455.889984 
	C265.899323,454.918640 280.044739,455.258759 293.619202,452.639801 
	C343.124115,443.088593 383.813690,418.369049 414.697449,378.339813 
	C442.374481,342.466949 456.038055,301.611237 455.935913,256.298828 
	C455.899139,239.994186 454.102753,223.818085 450.384094,207.810226 
	C464.750122,193.670639 478.839050,179.689514 492.859741,165.640366 
	C493.846649,164.651474 494.330170,163.160217 495.383728,162.077118 
	C495.803589,162.570648 495.862854,162.898514 495.974792,163.207306 
	C503.088745,182.834000 509.300385,202.682770 511.099609,223.647141 
	C511.142639,224.148758 512.340698,224.551270 513.000000,225.000000 
z"/>
<path fill="#FFDE50" opacity="1.000000" stroke="none" 
	d="
M259.000000,1.000000 
	C268.687561,1.000000 278.375122,1.000000 288.189209,1.333042 
	C289.147614,2.111509 289.938324,2.824993 290.817841,2.959981 
	C297.904083,4.047563 305.136810,4.481885 312.081146,6.137633 
	C335.275726,11.667941 357.682129,19.475113 378.644897,31.019171 
	C381.600006,32.646507 384.227875,34.868000 386.675568,36.909569 
	C372.574432,50.670341 358.804932,64.336029 344.675720,77.950851 
	C314.230316,63.410759 282.481964,56.932941 248.678192,58.101952 
	C238.827026,59.115692 229.301910,59.506641 220.065155,61.345829 
	C171.362381,71.043327 130.896103,94.881371 100.461601,134.248672 
	C62.091225,183.881104 49.613556,239.922394 63.131508,301.168091 
	C66.435066,316.135529 72.968330,330.390137 77.731201,345.146179 
	C72.362328,350.336853 67.328217,355.405121 62.180702,360.355438 
	C57.654263,364.708466 53.000877,368.929504 48.172016,372.914917 
	C47.598309,372.050537 47.213402,371.501160 46.920090,370.906616 
	C25.841736,328.177124 16.815767,283.155518 20.913818,235.562042 
	C22.517723,216.934814 25.931190,198.678696 31.593334,180.896301 
	C47.319103,131.508331 75.213112,90.355812 115.600815,57.757637 
	C151.514206,28.770830 192.282944,10.813898 237.918213,3.933005 
	C244.933395,2.875257 251.972153,1.973760 259.000000,1.000000 
z"/>
<path fill="#000000" opacity="1.000000" stroke="none" 
	d="
M387.007202,36.814480 
	C384.227875,34.868000 381.600006,32.646507 378.644897,31.019171 
	C357.682129,19.475113 335.275726,11.667941 312.081146,6.137633 
	C305.136810,4.481885 297.904083,4.047563 290.817841,2.959981 
	C289.938324,2.824993 289.147614,2.111509 288.657867,1.333042 
	C363.593719,1.000000 438.187408,1.000000 513.000000,1.000000 
	C513.000000,75.354088 513.000000,149.708389 513.000000,224.531342 
	C512.340698,224.551270 511.142639,224.148758 511.099609,223.647141 
	C509.300385,202.682770 503.088745,182.834000 495.974792,163.207306 
	C495.862854,162.898514 495.803589,162.570648 495.340027,161.705582 
	C490.658386,152.536591 485.938873,144.092499 482.152161,135.248993 
	C476.436737,121.901176 467.556915,110.679993 459.062256,98.738739 
	C449.262360,88.219543 439.615692,78.025017 429.832336,67.530952 
	C418.719910,58.822380 407.817719,50.314312 396.718842,42.071060 
	C393.793793,39.898586 390.260956,38.544418 387.007202,36.814480 
z"/>
<path fill="#000000" opacity="1.000000" stroke="none" 
	d="
M225.000000,513.000000 
	C150.406296,513.000000 75.812599,513.000000 1.000000,513.000000 
	C1.000000,438.645905 1.000000,364.291626 1.341661,289.138245 
	C2.097225,288.845123 2.769082,289.297424 2.887185,289.864960 
	C5.618812,302.991821 7.801014,316.254913 11.085119,329.239838 
	C16.294827,349.838348 24.888632,369.104431 36.185329,387.514038 
	C37.579918,389.875732 38.633396,392.078583 40.085209,393.976776 
	C49.330868,406.065247 58.664337,418.086578 68.088737,430.435059 
	C78.152901,439.899841 88.097206,449.059540 98.183250,458.522797 
	C118.291832,473.933075 139.531464,486.815887 163.362228,495.910217 
	C164.883469,496.561218 165.975754,497.287170 167.176712,497.685028 
	C185.283081,503.683594 203.528198,509.107178 222.616776,511.076080 
	C223.468277,511.163940 224.208130,512.334045 225.000000,513.000000 
z"/>
<path fill="#000000" opacity="1.000000" stroke="none" 
	d="
M289.468658,513.000000 
	C289.615143,512.332153 290.181305,511.135620 290.852539,511.073456 
	C309.380615,509.357239 327.065308,504.256012 344.538879,498.136658 
	C369.036896,489.557312 391.713257,477.477417 411.887695,461.279755 
	C424.969513,450.776642 437.435913,439.311432 448.978180,427.139465 
	C461.378052,414.063141 471.424286,399.017639 480.365723,383.264526 
	C489.518524,367.139069 497.222198,350.394287 501.969940,332.505890 
	C505.613464,318.777985 508.019135,304.722229 511.029572,290.824066 
	C511.222015,289.935608 511.882874,289.148621 512.662964,288.657227 
	C513.000000,363.593719 513.000000,438.187408 513.000000,513.000000 
	C438.645905,513.000000 364.291626,513.000000 289.468658,513.000000 
z"/>
<path fill="#000000" opacity="1.000000" stroke="none" 
	d="
M0.999997,224.000000 
	C1.000000,149.739456 1.000000,75.478920 1.000000,1.000000 
	C75.354088,1.000000 149.708389,1.000000 224.860291,1.347121 
	C220.304520,2.789109 214.969864,3.987253 209.594604,4.961474 
	C182.128967,9.939408 156.299789,19.316164 131.917969,32.954075 
	C105.031013,47.993233 81.831154,67.361206 61.779770,90.673256 
	C45.443687,109.665840 32.156612,130.548752 22.149942,153.500549 
	C12.594121,175.418289 5.799855,198.125229 2.921297,221.935120 
	C2.830058,222.689819 1.664645,223.314636 0.999997,224.000000 
z"/>
<path fill="#F0CD01" opacity="1.000000" stroke="none" 
	d="
M0.999997,224.468658 
	C1.664645,223.314636 2.830058,222.689819 2.921297,221.935120 
	C5.799855,198.125229 12.594121,175.418289 22.149942,153.500549 
	C32.156612,130.548752 45.443687,109.665840 61.779770,90.673256 
	C81.831154,67.361206 105.031013,47.993233 131.917969,32.954075 
	C156.299789,19.316164 182.128967,9.939408 209.594604,4.961474 
	C214.969864,3.987253 220.304520,2.789109 225.328949,1.347121 
	C236.020889,1.000000 247.041794,1.000000 258.531342,1.000000 
	C251.972153,1.973760 244.933395,2.875257 237.918213,3.933005 
	C192.282944,10.813898 151.514206,28.770830 115.600815,57.757637 
	C75.213112,90.355812 47.319103,131.508331 31.593334,180.896301 
	C25.931190,198.678696 22.517723,216.934814 20.913818,235.562042 
	C16.815767,283.155518 25.841736,328.177124 46.920090,370.906616 
	C47.213402,371.501160 47.598309,372.050537 48.062973,373.244812 
	C44.133125,378.317200 40.080761,382.765778 36.028397,387.214325 
	C24.888632,369.104431 16.294827,349.838348 11.085119,329.239838 
	C7.801014,316.254913 5.618812,302.991821 2.887185,289.864960 
	C2.769082,289.297424 2.097225,288.845123 1.341661,288.669556 
	C1.000000,267.645782 1.000000,246.291550 0.999997,224.468658 
z"/>
<path fill="#F1CE02" opacity="1.000000" stroke="none" 
	d="
M225.468658,513.000000 
	C224.208130,512.334045 223.468277,511.163940 222.616776,511.076080 
	C203.528198,509.107178 185.283081,503.683594 167.176712,497.685028 
	C165.975754,497.287170 164.883469,496.561218 163.523575,495.628540 
	C165.477356,493.403534 167.648224,491.537872 169.819077,489.672241 
	C194.034622,501.076813 219.453812,508.186615 246.062042,511.074432 
	C249.838608,511.484314 253.601624,512.019043 257.685455,512.748047 
	C247.312439,513.000000 236.624878,513.000000 225.468658,513.000000 
z"/>
<path fill="#FAA300" opacity="1.000000" stroke="none" 
	d="
M251.101349,455.843567 
	C236.978806,453.917023 222.856247,451.990479 207.950836,450.018280 
	C190.167938,444.910675 173.644958,438.674042 158.293304,429.672333 
	C151.457626,425.664093 144.792099,421.365662 137.914520,416.871826 
	C130.844879,410.361145 123.910088,404.177551 117.038757,397.656006 
	C120.801620,393.317932 124.367851,389.184052 128.226212,385.343628 
	C138.456024,375.161469 148.812103,365.106110 159.433502,355.086761 
	C160.886948,356.568542 162.186417,357.862152 163.137817,359.374725 
	C173.140472,375.277679 187.053436,386.501984 204.740540,392.449280 
	C210.043213,394.232300 211.454849,396.446381 211.077347,401.477173 
	C210.564804,408.307526 210.965729,415.035339 214.591278,421.271393 
	C220.349655,431.175964 236.292770,433.200653 243.470978,424.893341 
	C244.448898,425.549927 245.118546,426.045349 245.792694,426.534546 
	C252.263260,431.229584 259.199432,431.350525 266.005371,427.792480 
	C272.885651,424.195648 276.577209,418.408936 276.041962,410.283325 
	C275.801514,406.632965 276.242859,402.932983 275.931702,399.293365 
	C275.636078,395.835266 276.956512,394.348999 280.225616,393.322479 
	C326.455719,378.805573 346.301025,332.583069 331.799530,288.268188 
	C324.096954,264.729980 305.632355,251.593475 282.879608,244.136459 
	C278.422760,242.675781 275.625427,241.184189 277.241364,235.878296 
	C284.026215,229.102036 290.515686,222.492294 297.241272,215.646881 
	C299.745697,214.225998 302.013977,213.040802 304.607544,211.966049 
	C306.813232,213.127991 308.654266,214.258530 310.580627,215.217712 
	C320.553833,220.183685 334.953033,211.443680 335.697418,202.141693 
	C336.333466,194.193695 334.803925,186.072403 334.555908,177.956116 
	C336.399628,176.615555 338.025940,175.453232 339.423462,174.061218 
	C353.238007,160.301193 366.993134,146.481430 380.833313,132.747314 
	C382.317993,131.274048 384.235626,130.237061 386.249634,129.159088 
	C394.691925,141.202805 404.010223,152.457779 410.762421,165.084946 
	C431.177277,203.262558 437.452087,244.253845 430.985077,286.939545 
	C423.074738,339.151672 397.705139,381.478394 356.334625,414.120789 
	C332.568817,432.872620 305.675018,445.259186 276.017700,451.453857 
	C267.766602,453.177277 259.409698,454.394257 251.101349,455.843567 
z"/>
<path fill="#F68F01" opacity="1.000000" stroke="none" 
	d="
M251.558624,455.890015 
	C259.409698,454.394257 267.766602,453.177277 276.017700,451.453857 
	C305.675018,445.259186 332.568817,432.872620 356.334625,414.120789 
	C397.705139,381.478394 423.074738,339.151672 430.985077,286.939545 
	C437.452087,244.253845 431.177277,203.262558 410.762421,165.084946 
	C404.010223,152.457779 394.691925,141.202805 386.200592,128.820923 
	C375.983124,118.785614 366.757935,108.446861 356.108459,99.878357 
	C332.714050,81.055374 305.947601,68.777802 276.488281,62.697506 
	C267.443542,60.830708 258.258209,59.644978 249.137268,58.147377 
	C282.481964,56.932941 314.230316,63.410759 344.911163,78.192642 
	C361.572968,86.487862 376.114380,96.754372 389.977844,108.576775 
	C399.377045,118.943802 408.582275,129.049118 417.903595,139.477646 
	C432.922211,160.535797 443.576691,183.269775 450.090485,207.952271 
	C454.102753,223.818085 455.899139,239.994186 455.935913,256.298828 
	C456.038055,301.611237 442.374481,342.466949 414.697449,378.339813 
	C383.813690,418.369049 343.124115,443.088593 293.619202,452.639801 
	C280.044739,455.258759 265.899323,454.918640 251.558624,455.890015 
z"/>
<path fill="#FFEA93" opacity="1.000000" stroke="none" 
	d="
M138.049347,417.198914 
	C144.792099,421.365662 151.457626,425.664093 158.293304,429.672333 
	C173.644958,438.674042 190.167938,444.910675 207.548157,450.037170 
	C197.319138,460.892029 186.698257,471.670898 176.110596,482.482269 
	C174.023361,484.613678 172.064178,486.870453 169.932495,489.370789 
	C167.648224,491.537872 165.477356,493.403534 163.145157,495.550842 
	C139.531464,486.815887 118.291832,473.933075 98.478378,458.352051 
	C101.462158,454.917267 104.292534,451.956818 107.407135,448.838806 
	C117.137596,439.295227 126.601555,429.926971 136.001175,420.494598 
	C136.890640,419.602081 137.376236,418.307068 138.049347,417.198914 
z"/>
<path fill="#FFEA93" opacity="1.000000" stroke="none" 
	d="
M450.384094,207.810226 
	C443.576691,183.269775 432.922211,160.535797 418.102356,139.187439 
	C430.594574,126.097961 442.984619,113.602341 455.451050,101.183334 
	C456.434174,100.203949 457.948212,99.757515 459.215515,99.063400 
	C467.556915,110.679993 476.436737,121.901176 482.152161,135.248993 
	C485.938873,144.092499 490.658386,152.536591 495.004059,161.531006 
	C494.330170,163.160217 493.846649,164.651474 492.859741,165.640366 
	C478.839050,179.689514 464.750122,193.670639 450.384094,207.810226 
z"/>
<path fill="#FFBD00" opacity="1.000000" stroke="none" 
	d="
M248.678192,58.101952 
	C258.258209,59.644978 267.443542,60.830708 276.488281,62.697506 
	C305.947601,68.777802 332.714050,81.055374 356.108459,99.878357 
	C366.757935,108.446861 375.983124,118.785614 385.903381,128.659546 
	C384.235626,130.237061 382.317993,131.274048 380.833313,132.747314 
	C366.993134,146.481430 353.238007,160.301193 339.423462,174.061218 
	C338.025940,175.453232 336.399628,176.615555 334.496460,177.561493 
	C327.748474,152.443359 312.546204,135.001144 289.678802,124.002998 
	C285.269501,121.882324 278.781189,121.256752 276.715790,117.844734 
	C274.414948,114.043686 276.034760,107.848045 276.011566,102.694473 
	C275.975067,94.583366 271.369232,87.851837 263.763123,85.127213 
	C256.146484,82.398788 249.401489,84.384163 243.048126,88.889313 
	C233.730911,79.852982 217.010529,83.716911 213.054962,96.119980 
	C211.145767,102.106422 211.374634,108.845139 211.129028,115.262115 
	C211.005676,118.484688 209.936127,119.930275 206.891663,120.878021 
	C185.855408,127.426575 170.198135,140.664932 160.065216,160.102295 
	C151.931046,175.705536 149.374588,192.395508 151.945648,209.909683 
	C154.002411,223.920364 158.955566,236.511841 168.567871,247.085999 
	C178.799194,258.341156 191.598984,265.569946 205.832718,270.307770 
	C209.900833,271.661865 211.279404,273.637360 211.111237,277.826447 
	C210.771072,286.301147 210.924438,294.795654 210.567505,303.111145 
	C200.562515,295.841461 193.185364,295.850769 182.890625,302.679718 
	C177.109009,296.900452 170.268158,296.703613 163.651932,299.132172 
	C156.038406,301.926819 151.171860,308.040039 151.215607,316.241791 
	C151.255035,323.635010 152.624557,331.091736 154.087158,338.384094 
	C155.219925,344.031952 157.402191,349.469330 159.117920,355.000275 
	C148.812103,365.106110 138.456024,375.161469 128.226212,385.343628 
	C124.367851,389.184052 120.801620,393.317932 116.747940,397.502960 
	C113.913147,395.456635 111.432617,393.225372 108.872726,390.665771 
	C96.904640,376.321503 86.583534,361.242035 78.016670,344.972473 
	C72.968330,330.390137 66.435066,316.135529 63.131508,301.168091 
	C49.613556,239.922394 62.091225,183.881104 100.461601,134.248672 
	C130.896103,94.881371 171.362381,71.043327 220.065155,61.345829 
	C229.301910,59.506641 238.827026,59.115692 248.678192,58.101952 
z"/>
<path fill="#FFEA93" opacity="1.000000" stroke="none" 
	d="
M77.731201,345.146179 
	C86.583534,361.242035 96.904640,376.321503 108.537880,390.717316 
	C98.178055,401.043945 88.073723,410.990692 77.719215,421.155914 
	C74.302315,424.292938 71.135590,427.211456 67.968872,430.130005 
	C58.664337,418.086578 49.330868,406.065247 40.085209,393.976776 
	C38.633396,392.078583 37.579918,389.875732 36.185333,387.514038 
	C40.080761,382.765778 44.133125,378.317200 48.294529,373.538757 
	C53.000877,368.929504 57.654263,364.708466 62.180702,360.355438 
	C67.328217,355.405121 72.362328,350.336853 77.731201,345.146179 
z"/>
<path fill="#FFEA93" opacity="1.000000" stroke="none" 
	d="
M389.783936,108.315079 
	C376.114380,96.754372 361.572968,86.487862 345.270874,78.243515 
	C358.804932,64.336029 372.574432,50.670341 386.675568,36.909565 
	C390.260956,38.544418 393.793793,39.898586 396.718842,42.071060 
	C407.817719,50.314312 418.719910,58.822380 429.714020,67.855049 
	C416.416229,81.757477 403.100067,95.036285 389.783936,108.315079 
z"/>
<path fill="#FFDE50" opacity="1.000000" stroke="none" 
	d="
M389.977875,108.576782 
	C403.100067,95.036285 416.416229,81.757477 429.850708,68.154579 
	C439.615692,78.025017 449.262360,88.219543 459.062256,98.738739 
	C457.948212,99.757515 456.434174,100.203949 455.451050,101.183334 
	C442.984619,113.602341 430.594574,126.097961 417.986267,138.864258 
	C408.582275,129.049118 399.377045,118.943802 389.977875,108.576782 
z"/>
<path fill="#F0CD02" opacity="1.000000" stroke="none" 
	d="
M68.088730,430.435059 
	C71.135590,427.211456 74.302315,424.292938 78.065857,421.206940 
	C80.093033,422.347809 81.569893,423.609222 82.946053,424.972290 
	C91.018059,432.967163 99.066521,440.985779 107.122910,448.996399 
	C104.292534,451.956818 101.462158,454.917267 98.336639,458.048462 
	C88.097206,449.059540 78.152901,439.899841 68.088730,430.435059 
z"/>
<path fill="#FFEA94" opacity="1.000000" stroke="none" 
	d="
M183.078217,302.974457 
	C193.185364,295.850769 200.562515,295.841461 210.723862,303.407990 
	C212.792679,308.287659 215.509552,312.628876 215.795700,317.124817 
	C216.653854,330.607147 222.177063,341.304474 232.582687,349.649994 
	C233.762482,350.596222 235.198105,351.223450 237.285812,352.452209 
	C237.285812,349.545288 237.285797,347.731415 237.285797,345.917542 
	C237.285797,325.752899 237.285828,305.588226 237.285843,285.423584 
	C237.285843,272.613831 237.261734,272.673523 225.286301,267.836914 
	C204.022293,259.248810 187.767349,245.197281 180.736908,222.934982 
	C174.595963,203.489349 175.163910,183.850372 183.874329,164.901428 
	C193.632080,143.674179 209.373871,128.906052 231.485168,121.357315 
	C235.927231,119.840790 237.460327,118.016098 237.092148,113.421143 
	C236.396179,104.734947 236.541870,96.082970 243.249634,89.199379 
	C249.401489,84.384163 256.146484,82.398788 263.763123,85.127213 
	C271.369232,87.851837 275.975067,94.583366 276.011566,102.694473 
	C276.034760,107.848045 274.414948,114.043686 276.715790,117.844734 
	C278.781189,121.256752 285.269501,121.882324 289.678802,124.002998 
	C312.546204,135.001144 327.748474,152.443359 334.172852,177.633148 
	C334.803925,186.072403 336.333466,194.193695 335.697418,202.141693 
	C334.953033,211.443680 320.553833,220.183685 310.580627,215.217712 
	C308.654266,214.258530 306.813232,213.127991 304.431580,211.670624 
	C299.879700,207.056122 297.666504,202.031509 296.978729,196.234390 
	C296.438110,191.677338 296.206970,186.973557 294.847015,182.646500 
	C291.965454,173.477814 285.829834,166.824554 276.954376,161.369385 
	C276.954376,178.676025 276.954376,194.798706 276.880737,211.393585 
	C276.853424,219.925446 276.899689,227.985123 276.945984,236.044785 
	C275.625427,241.184189 278.422760,242.675781 282.879608,244.136459 
	C305.632355,251.593475 324.096954,264.729980 331.799530,288.268188 
	C346.301025,332.583069 326.455719,378.805573 280.225616,393.322479 
	C276.956512,394.348999 275.636078,395.835266 275.931702,399.293365 
	C276.242859,402.932983 275.801514,406.632965 276.041962,410.283325 
	C276.577209,418.408936 272.885651,424.195648 266.005371,427.792480 
	C259.199432,431.350525 252.263260,431.229584 245.792694,426.534546 
	C245.118546,426.045349 244.448898,425.549927 243.310959,424.598206 
	C239.404221,419.971344 236.869598,415.454193 236.985306,409.809357 
	C237.067169,405.815582 236.921417,401.816559 237.031372,397.824158 
	C237.094193,395.543091 236.282074,394.827087 234.041046,393.730774 
	C224.689301,389.155975 214.788879,385.026703 206.705734,378.676819 
	C190.356216,365.833099 180.714218,348.641052 177.763840,327.669250 
	C176.471481,318.482849 176.597885,310.203705 183.078217,302.974457 
M215.998688,198.390671 
	C216.513428,214.511932 223.831985,225.248444 236.812683,229.282608 
	C236.812683,206.972824 236.812683,184.671387 236.812683,161.427597 
	C223.269455,170.427933 216.312515,182.022385 215.998688,198.390671 
M295.170074,329.650177 
	C301.128296,308.161469 294.102020,289.051971 277.168152,284.743713 
	C277.168152,307.025360 277.168152,329.321503 277.168152,352.611664 
	C286.016022,346.680023 292.414246,340.113556 295.170074,329.650177 
z"/>
<path fill="#F68F01" opacity="1.000000" stroke="none" 
	d="
M182.890625,302.679718 
	C176.597885,310.203705 176.471481,318.482849 177.763840,327.669250 
	C180.714218,348.641052 190.356216,365.833099 206.705734,378.676819 
	C214.788879,385.026703 224.689301,389.155975 234.041046,393.730774 
	C236.282074,394.827087 237.094193,395.543091 237.031372,397.824158 
	C236.921417,401.816559 237.067169,405.815582 236.985306,409.809357 
	C236.869598,415.454193 239.404221,419.971344 243.004761,424.434204 
	C236.292770,433.200653 220.349655,431.175964 214.591278,421.271393 
	C210.965729,415.035339 210.564804,408.307526 211.077347,401.477173 
	C211.454849,396.446381 210.043213,394.232300 204.740540,392.449280 
	C187.053436,386.501984 173.140472,375.277679 163.137817,359.374725 
	C162.186417,357.862152 160.886948,356.568542 159.433502,355.086761 
	C157.402191,349.469330 155.219925,344.031952 154.087158,338.384094 
	C152.624557,331.091736 151.255035,323.635010 151.215607,316.241791 
	C151.171860,308.040039 156.038406,301.926819 163.651932,299.132172 
	C170.268158,296.703613 177.109009,296.900452 182.890625,302.679718 
z"/>
<path fill="#FFDE50" opacity="1.000000" stroke="none" 
	d="
M107.407135,448.838806 
	C99.066521,440.985779 91.018059,432.967163 82.946053,424.972290 
	C81.569893,423.609222 80.093033,422.347809 78.316040,420.988434 
	C88.073723,410.990692 98.178055,401.043945 108.617233,391.045654 
	C111.432617,393.225372 113.913147,395.456635 116.684486,397.840942 
	C123.910088,404.177551 130.844879,410.361145 137.914505,416.871826 
	C137.376236,418.307068 136.890640,419.602081 136.001175,420.494598 
	C126.601555,429.926971 117.137596,439.295227 107.407135,448.838806 
z"/>
<path fill="#F68F01" opacity="1.000000" stroke="none" 
	d="
M276.954376,210.921371 
	C276.954376,194.798706 276.954376,178.676025 276.954376,161.369385 
	C285.829834,166.824554 291.965454,173.477814 294.847015,182.646500 
	C296.206970,186.973557 296.438110,191.677338 296.978729,196.234390 
	C297.666504,202.031509 299.879700,207.056122 304.106262,211.560181 
	C302.013977,213.040802 299.745697,214.225998 296.781250,215.681000 
	C289.070496,216.699905 282.533844,215.631134 276.954376,210.921371 
z"/>
<path fill="#FFBD00" opacity="1.000000" stroke="none" 
	d="
M276.880737,211.393585 
	C282.533844,215.631134 289.070496,216.699905 296.545105,215.916687 
	C290.515686,222.492294 284.026215,229.102036 277.241364,235.878296 
	C276.899689,227.985123 276.853424,219.925446 276.880737,211.393585 
z"/>
<path fill="#F68F01" opacity="1.000000" stroke="none" 
	d="
M243.048126,88.889313 
	C236.541870,96.082970 236.396179,104.734947 237.092148,113.421143 
	C237.460327,118.016098 235.927231,119.840790 231.485168,121.357315 
	C209.373871,128.906052 193.632080,143.674179 183.874329,164.901428 
	C175.163910,183.850372 174.595963,203.489349 180.736908,222.934982 
	C187.767349,245.197281 204.022293,259.248810 225.286301,267.836914 
	C237.261734,272.673523 237.285843,272.613831 237.285843,285.423584 
	C237.285828,305.588226 237.285797,325.752899 237.285797,345.917542 
	C237.285797,347.731415 237.285812,349.545288 237.285812,352.452209 
	C235.198105,351.223450 233.762482,350.596222 232.582687,349.649994 
	C222.177063,341.304474 216.653854,330.607147 215.795700,317.124817 
	C215.509552,312.628876 212.792679,308.287659 211.030640,303.578857 
	C210.924438,294.795654 210.771072,286.301147 211.111237,277.826447 
	C211.279404,273.637360 209.900833,271.661865 205.832718,270.307770 
	C191.598984,265.569946 178.799194,258.341156 168.567871,247.085999 
	C158.955566,236.511841 154.002411,223.920364 151.945648,209.909683 
	C149.374588,192.395508 151.931046,175.705536 160.065216,160.102295 
	C170.198135,140.664932 185.855408,127.426575 206.891663,120.878021 
	C209.936127,119.930275 211.005676,118.484688 211.129028,115.262115 
	C211.374634,108.845139 211.145767,102.106422 213.054962,96.119980 
	C217.010529,83.716911 233.730911,79.852982 243.048126,88.889313 
z"/>
<path fill="#F68F01" opacity="1.000000" stroke="none" 
	d="
M215.998596,197.929031 
	C216.312515,182.022385 223.269455,170.427933 236.812683,161.427597 
	C236.812683,184.671387 236.812683,206.972824 236.812683,229.282608 
	C223.831985,225.248444 216.513428,214.511932 215.998596,197.929031 
z"/>
<path fill="#F68F01" opacity="1.000000" stroke="none" 
	d="
M295.113586,330.052063 
	C292.414246,340.113556 286.016022,346.680023 277.168152,352.611664 
	C277.168152,329.321503 277.168152,307.025360 277.168152,284.743713 
	C294.102020,289.051971 301.128296,308.161469 295.113586,330.052063 
z"/>
</svg>