<?xml version="1.0" standalone="no"?>
<!DOCTYPE svg PUBLIC "-//W3C//DTD SVG 20010904//EN"
 "http://www.w3.org/TR/2001/REC-SVG-20010904/DTD/svg10.dtd">
<svg version="1.0" xmlns="http://www.w3.org/2000/svg"
 width="512.000000pt" height="512.000000pt" viewBox="0 0 512.000000 512.000000"
 preserveAspectRatio="xMidYMid meet">

<g transform="translate(0.000000,512.000000) scale(0.100000,-0.100000)"
fill="#000000" stroke="none">
<path d="M1827 4899 c-76 -18 -148 -76 -184 -148 -26 -52 -31 -255 -8 -357 32
-145 124 -285 247 -378 47 -36 63 -53 53 -58 -7 -5 -64 -26 -125 -48 -255 -91
-396 -202 -494 -389 -54 -103 -71 -180 -131 -568 -30 -199 -62 -384 -71 -410
-22 -65 -43 -98 -130 -200 -88 -104 -156 -231 -178 -335 -9 -40 -29 -186 -44
-325 -21 -178 -33 -259 -45 -277 -9 -14 -47 -51 -85 -83 -118 -101 -182 -197
-211 -315 -15 -62 -16 -320 -2 -381 40 -172 177 -321 355 -386 l71 -26 1715 0
1715 0 65 23 c173 62 289 178 345 346 24 70 26 92 26 225 -1 96 -6 166 -16
204 -35 133 -113 240 -244 332 l-76 53 -244 979 c-134 538 -254 1004 -266
1036 -38 95 -86 167 -165 247 -92 93 -157 133 -325 201 -71 28 -131 53 -133
54 -2 2 34 23 79 46 96 50 204 151 257 241 62 105 84 187 90 341 5 161 -5 203
-72 275 -46 50 -75 67 -139 82 -41 9 -78 2 -413 -80 -233 -57 -388 -90 -422
-90 -37 0 -159 28 -371 84 -354 95 -371 98 -424 85z m403 -385 c392 -106 381
-106 817 4 178 45 326 82 329 82 14 0 -5 -137 -27 -195 -30 -82 -120 -172
-204 -206 l-60 -24 -440 0 c-438 0 -440 0 -498 23 -133 54 -223 181 -234 329
-6 71 -5 75 13 70 10 -3 147 -41 304 -83z m58 -766 c-46 -71 -300 -520 -309
-547 -16 -44 -3 -95 32 -136 57 -64 160 -67 211 -6 14 15 107 172 208 347 101
175 184 320 185 322 1 1 89 -149 196 -334 202 -350 214 -366 285 -380 45 -8
118 26 144 68 12 20 20 50 20 78 0 40 -16 74 -140 289 -77 134 -139 245 -138
246 8 8 403 -158 441 -184 63 -43 123 -114 156 -185 19 -40 105 -371 255 -976
125 -503 229 -925 232 -937 l6 -23 -304 0 c-300 0 -306 0 -338 -22 -51 -35
-72 -69 -72 -119 -1 -55 23 -104 65 -129 30 -19 53 -20 449 -20 l418 0 41 -37
c66 -60 82 -101 87 -226 6 -144 -7 -187 -72 -252 -32 -32 -66 -55 -92 -63 -60
-17 -3328 -17 -3388 0 -26 8 -60 31 -92 63 -65 65 -78 108 -72 252 5 137 18
164 134 269 100 90 154 167 177 251 9 32 28 166 42 298 36 333 53 384 165 510
76 84 120 151 153 231 38 90 43 115 102 501 31 197 61 376 66 398 28 104 118
219 211 270 50 28 508 201 537 204 11 1 11 -3 -1 -21z"/>
</g>
</svg>
