<?xml version="1.0" standalone="no"?>
<!DOCTYPE svg PUBLIC "-//W3C//DTD SVG 20010904//EN"
 "http://www.w3.org/TR/2001/REC-SVG-20010904/DTD/svg10.dtd">
<svg version="1.0" xmlns="http://www.w3.org/2000/svg"
 width="512.000000pt" height="512.000000pt" viewBox="0 0 512.000000 512.000000"
 preserveAspectRatio="xMidYMid meet">

<g transform="translate(0.000000,512.000000) scale(0.100000,-0.100000)"
fill="#000000" stroke="none">
<path d="M2272 5109 c-180 -31 -367 -138 -484 -276 -58 -70 -119 -184 -148
-280 l-22 -73 -346 0 c-263 0 -363 -4 -415 -15 -179 -38 -319 -177 -362 -357
-21 -88 -20 -438 0 -527 44 -186 198 -330 386 -361 35 -5 67 -10 72 -10 4 0 7
-188 7 -417 l0 -418 -90 -29 c-205 -65 -376 -215 -469 -409 -76 -159 -76 -159
-76 -727 l0 -505 24 -67 c43 -120 129 -214 246 -269 79 -38 144 -49 279 -49
l111 0 33 -65 c61 -118 190 -216 320 -244 74 -16 2369 -16 2444 0 128 27 259
127 320 244 l33 65 111 0 c141 0 202 11 290 55 127 62 228 195 254 334 13 72
13 916 0 1001 -49 307 -272 563 -562 646 l-68 19 0 417 0 417 48 6 c123 17
200 53 283 132 66 63 112 144 134 234 21 89 21 439 0 528 -32 132 -128 257
-244 316 -97 49 -155 55 -532 55 l-347 0 -27 88 c-80 259 -261 433 -542 519
-85 26 -98 27 -348 29 -143 1 -284 -2 -313 -7z m549 -299 c134 -25 274 -133
338 -261 l32 -64 -316 -3 c-173 -1 -457 -1 -630 0 l-316 3 30 60 c40 79 115
162 187 205 97 58 159 69 405 69 119 1 241 -4 270 -9z m-1536 -965 l0 -330
-168 -3 c-178 -3 -227 5 -272 40 -56 44 -65 83 -65 293 0 163 3 196 19 230 42
91 84 105 311 102 l175 -2 0 -330z m2245 0 l0 -335 -970 0 -970 0 0 335 0 335
970 0 970 0 0 -335z m693 321 c50 -18 76 -42 98 -91 16 -34 19 -67 19 -230 0
-210 -9 -249 -65 -293 -45 -35 -94 -43 -272 -40 l-168 3 -3 320 c-1 176 0 325
3 332 7 19 336 17 388 -1z m-363 -2333 c-1 -1463 0 -1422 -47 -1475 -10 -11
-36 -29 -58 -39 -38 -18 -95 -19 -1195 -19 -1100 0 -1157 1 -1195 19 -22 10
-48 28 -58 39 -47 53 -46 12 -47 1475 l0 1377 1300 0 1300 0 0 -1377z m-2900
-493 l0 -720 -95 0 c-136 0 -189 25 -226 105 -17 37 -19 74 -19 471 0 267 4
453 11 490 17 95 64 181 138 255 56 55 154 119 183 119 4 0 8 -324 8 -720z
m3299 677 c112 -67 207 -202 230 -331 7 -37 11 -223 11 -490 0 -397 -2 -434
-19 -471 -37 -80 -90 -105 -226 -105 l-95 0 0 721 0 720 23 -6 c12 -4 46 -21
76 -38z"/>
<path d="M1963 2855 c-206 -56 -353 -239 -353 -439 0 -49 5 -71 23 -97 60 -90
183 -89 249 2 9 13 22 52 27 87 12 74 38 115 91 142 38 19 61 20 560 20 499 0
522 -1 560 -20 53 -27 79 -68 91 -142 5 -35 18 -74 27 -87 66 -91 189 -92 249
-2 45 66 22 223 -47 331 -65 101 -165 173 -285 205 -84 21 -1111 21 -1192 0z"/>
<path d="M2000 1900 c-141 -25 -274 -120 -335 -240 -53 -104 -55 -126 -55
-529 0 -430 0 -427 80 -468 l44 -23 826 0 826 0 44 23 c80 41 80 38 80 467 0
402 -3 428 -53 525 -52 102 -146 183 -265 228 -56 21 -70 21 -602 23 -300 1
-565 -1 -590 -6z m1085 -301 c22 -6 53 -23 68 -37 56 -52 57 -59 57 -352 l0
-270 -650 0 -650 0 0 270 c0 293 1 299 57 352 15 14 44 31 63 36 50 14 1003
15 1055 1z"/>
</g>
</svg>
